<svg version="1.1" id="Layer_1" xmlns="http://www.w3.org/2000/svg" xmlns:xlink="http://www.w3.org/1999/xlink" x="0px" y="0px" viewBox="0 0 239.1 70.5" style="enable-background:new 0 0 239.1 70.5;" xml:space="preserve">
 <style type="text/css">
  .st0{fill:#555555;}
	.st1{fill:#FFB81C;}
 </style>
 <g>
  <polygon class="st0" points="35.4,57.3 36.7,57.3 34.9,66.7 40.3,66.7 40,67.9 33.4,67.9 	">
  </polygon>
  <path class="st0" d="M42.5,60.2h1.2l-1.5,7.7H41L42.5,60.2z M43.1,57.3h1.2L44,58.8h-1.2L43.1,57.3z">
  </path>
  <g>
   <path class="st0" d="M44.6,60.2h1l0.2-1.2c0.3-1.3,0.9-1.8,2.2-1.8c0.2,0,0.5,0,0.7,0l-0.2,1c-0.2,0-0.4,0-0.5,0
			c-0.8,0-1,0.3-1.1,0.8l-0.2,1.2h1.4l-0.2,1h-1.4l-1.3,6.7h-1.2l1.3-6.7h-1L44.6,60.2z">
   </path>
   <path class="st0" d="M49,64.4c0,0.1,0,0.3,0,0.4c0,1.4,0.7,2.3,2.1,2.3c1,0,1.8-0.6,2.2-1.6h1.2c-0.6,1.7-1.9,2.6-3.5,2.6
			c-1.8,0-3.2-1.3-3.2-3.3c0-2.6,1.7-4.7,4-4.7c0.8,0,1.5,0.2,1.9,0.6c1,0.7,1.3,2.1,1,3.8H49z M49.1,63.5h4.5
			c0.2-1.4-0.4-2.5-1.9-2.5C50.4,61,49.5,62,49.1,63.5">
   </path>
   <polygon class="st0" points="59,57.3 67.1,57.3 66.9,58.5 63.5,58.5 61.7,67.9 60.4,67.9 62.2,58.5 58.8,58.5 		">
   </polygon>
   <path class="st0" d="M69.6,67L69.6,67c-0.5,0.7-1.4,1.1-2.4,1.1c-1.5,0-2.4-1-2.4-2.2c0-2,1.5-2.4,3-2.5c2.1-0.1,2.6-0.3,2.6-1.3
			c0-1-0.7-1.2-1.6-1.2c-1.3,0-2,0.4-2.2,1.5h-1.2c0.3-1.5,1.5-2.5,3.5-2.5c1.5,0,2.9,0.7,2.5,2.6l-0.7,3.6c-0.1,0.6,0,0.9,0.7,0.8
			h0l-0.2,0.9C71.1,68,71,68,70.7,68C69.9,68,69.6,67.5,69.6,67 M67.4,67.2c1.5,0,2.3-1,2.5-2.2l0.2-1.1c-0.5,0.3-1.1,0.3-2.4,0.4
			c-0.6,0-1.8,0.1-1.8,1.5C66,66.6,66.5,67.2,67.4,67.2">
   </path>
   <polygon class="st0" points="76.1,63.1 78.2,67.9 76.9,67.9 75.2,63.9 73.8,65.1 73.3,67.9 72.1,67.9 74.2,57.3 75.3,57.3 
			74.1,63.7 77.8,60.2 79.3,60.2 		">
   </polygon>
   <path class="st0" d="M80,64.4c0,0.1,0,0.3,0,0.4c0,1.4,0.7,2.3,2.1,2.3c1,0,1.8-0.6,2.2-1.6h1.2c-0.6,1.7-1.9,2.6-3.5,2.6
			c-1.8,0-3.2-1.3-3.2-3.3c0-2.6,1.7-4.7,4-4.7c0.8,0,1.5,0.2,1.9,0.6c1,0.7,1.3,2.1,1,3.8H80z M80.2,63.5h4.5
			c0.2-1.4-0.4-2.5-1.9-2.5C81.4,61,80.5,62,80.2,63.5">
   </path>
   <path class="st0" d="M86.1,65.4h1.1c0,1.1,0.8,1.7,2.1,1.7c0.8,0,1.7-0.3,1.7-1.4c0-0.6-0.5-0.9-1.8-1.4c-1.3-0.5-2.3-0.9-2.3-2.3
			c0-1.3,1.1-2.1,2.7-2.1c1.5,0,2.8,0.7,2.9,2.4h-1.2c-0.1-1.1-0.8-1.5-1.8-1.5c-0.8,0-1.5,0.2-1.5,1.1c0,0.6,0.5,0.9,1.8,1.4
			c1.4,0.5,2.4,1,2.4,2.3c0,1.7-1.4,2.4-3,2.4C87.6,68.2,86.1,67.3,86.1,65.4">
   </path>
   <polygon class="st0" points="97.7,57.3 104.6,57.3 104.4,58.5 98.8,58.5 98.1,61.8 103.3,61.8 103.1,63 97.9,63 97.2,66.7 
			103.2,66.7 102.9,67.9 95.6,67.9 		">
   </polygon>
   <path class="st0" d="M106.4,61.4L106.4,61.4c0.7-0.8,1.7-1.4,2.9-1.4c1.5,0,2.2,0.9,1.9,2.4l-1.1,5.4h-1.2l1.1-5.4
			c0.2-1-0.1-1.4-1-1.4c-1.4,0-2.7,1.2-3,2.6l-0.8,4.3H104l1.5-7.7h1.2L106.4,61.4z">
   </path>
   <path class="st0" d="M113.1,64.4c0,0.1,0,0.3,0,0.4c0,1.4,0.7,2.3,2.1,2.3c1,0,1.8-0.6,2.2-1.6h1.2c-0.6,1.7-1.9,2.6-3.5,2.6
			c-1.8,0-3.2-1.3-3.2-3.3c0-2.6,1.7-4.7,4-4.7c0.8,0,1.5,0.2,1.9,0.6c1,0.7,1.3,2.1,1,3.8H113.1z M113.2,63.5h4.5
			c0.2-1.4-0.4-2.5-1.9-2.5C114.4,61,113.5,62,113.2,63.5">
   </path>
   <path class="st0" d="M121.6,61.5L121.6,61.5c0.6-0.8,1.4-1.3,2.2-1.3c0.4,0,0.5,0,0.6,0.1l-0.2,1.1h0c-0.2-0.1-0.3-0.1-0.5-0.1
			c-1.2,0-2.2,0.9-2.5,2.6l-0.8,4.1h-1.2l1.5-7.7h1.2L121.6,61.5z">
   </path>
   <path class="st0" d="M123.9,68.4h1.2c0.1,0.9,0.8,1.2,1.7,1.2c1.3,0,2-0.7,2.2-1.7l0.2-1.2h0c-0.6,0.6-1.3,1-2.2,1
			c-1.7,0-2.8-1.2-2.8-3.1c0-2.3,1.4-4.5,3.9-4.5c1,0,1.8,0.5,2.2,1.3h0l0.2-1.1h1.2l-1.5,7.7c-0.3,1.6-1.5,2.6-3.3,2.6
			C125.3,70.5,123.9,69.9,123.9,68.4 M127.2,66.7c1.9,0,2.7-1.8,2.7-3.5c0-1.3-0.6-2.1-2-2.1c-1.8,0-2.6,1.8-2.6,3.5
			C125.3,65.7,125.9,66.7,127.2,66.7">
   </path>
   <path class="st0" d="M131.2,70.3l0.2-1h0.1c0.1,0.1,0.4,0.2,0.8,0.2c0.5,0,0.9-0.2,1.2-0.8l0.5-1l-1.6-7.5h1.2l1,4.8
			c0.1,0.7,0.2,1.5,0.2,1.5h0c0,0,0.3-0.8,0.7-1.5l2.4-4.8h1.2l-4.5,8.6c-0.6,1.2-1.4,1.6-2.3,1.6C131.9,70.5,131.5,70.4,131.2,70.3
			">
   </path>
   <path class="st1" d="M3.2,19.4c0.5,0,1.2-0.9,2.6-2.2C15.9,7.6,30.9,2,41.3,2C48.8,2,52,5.9,52,10.6c0,3.4-1.7,7.2-4.5,11h5.2
			c1.9-3.7,3-7.3,3-10.7c0-5.6-3.6-11-13.5-11C22.1,0,2.6,16.1,2.6,18.8C2.6,19.2,2.9,19.4,3.2,19.4">
   </path>
  </g>
  <g>
   <path class="st1" d="M39.5,30.1C30.4,38,18.3,44.3,10.3,44.3c-3.7,0-6.1-1.7-6.1-4.7c0-1.7,0.7-3.4,1.9-5.1
			c0.9,0.8,2.6,1.4,4.8,1.4c9.2,0,19.4-7.2,19.4-12.2c0-1.4-1.3-3-4.1-3c-4.6,0-12.8,3.7-18.7,9c-0.7-1.7,0.5-4.4,2.7-6.8
			c4.6-4.9,13.4-9.4,18.1-9.4c0.5,0,0.7,0.2,0.7,0.5c0,0.4-0.6,0.6-0.6,1.2c0,0.3,0.2,0.5,0.6,0.5c0.8,0,2-1.3,2-2.4
			c0-0.9-0.7-1.5-2-1.5c-4.9,0-14.7,4.3-20.5,9.9c-3.5,3.4-5.5,7.6-3.9,10.9C1.8,35.9,0,39.3,0,42.8c0,4.4,3.3,7.4,9.2,7.4
			c9.6,0,20.1-4.9,28.7-11.7L39.5,30.1z M25.5,22.7c1.4,0,1.8,0.7,1.8,1.4c0,2.8-8.5,8.5-15.7,8.5c-1.5,0-2.8-0.6-3.1-1
			C13.5,26.7,21.4,22.7,25.5,22.7">
   </path>
   <path class="st0" d="M110.5,35.2l0-0.2c3.6-0.9,5.2-4.1,5.2-7.1c0-3.4-2.6-6.3-7.7-6.3H93.2l-4.9,27.7h16.4c4.7,0,8.7-3.1,9.5-7.8
			c0-0.4,0.1-0.8,0.1-1.2C114.2,37.9,112.9,35.9,110.5,35.2 M102.8,42.9h-4.8l0.8-4.7h4.7c1.2,0,2.4,0.5,2.4,1.8
			C105.8,41.7,104.4,42.9,102.8,42.9 M104.9,32.4h-5.1l0.8-4.5h5c1.1,0,2.1,0.5,2.1,1.7C107.7,31.2,106.4,32.4,104.9,32.4
			 M82.3,21.6l-2.2,13.8l-7.9-13.8h-7.1l-4.9,27.7H68l2.5-14.5h0.1l8,14.5h6.6l4.9-27.7H82.3z M46.5,38.8h10.2l1.2-6.5H47.6l0.7-4
			h12.9l1.2-6.6H41l-4.9,27.7h21.4l1.2-6.6H45.8L46.5,38.8z M192.7,39.4h4c-0.4,2.6-1.4,4-4.3,4c-1.9,0-3.1-1-3.1-3
			c0-0.3,0-0.7,0.1-1l1.5-8.3c0.4-2.3,2.3-3.6,4.5-3.6c1.6,0,3.1,0.9,3.1,2.7c0,0.4,0,0.8-0.1,1.2h7.9c0.2-0.9,0.3-1.8,0.3-2.7
			c0.2-5.8-5.9-8-10.6-8c-7.3,0-12.7,3.8-13.9,10.6l-1.4,8.1c-0.1,0.7-0.2,1.4-0.2,2.2c0,6.1,5.3,8.6,10.6,8.6
			c5.8,0,12.4-3.1,13.6-9.4c0.4-2.3,0.8-4.6,1.2-6.9h-12.3L192.7,39.4z M237.6,23.8c0-0.4-0.3-0.8-0.8-0.8h-1v2.3h0.4v-0.8h0.6
			l0.4,0.8h0.4l-0.5-0.8C237.4,24.3,237.6,24.1,237.6,23.8 M236.7,24.2h-0.6v-0.9h0.6c0.4,0,0.5,0.2,0.5,0.5
			C237.2,24,237,24.2,236.7,24.2 M206,49.3h21.4l1.2-6.6h-12.9l0.7-3.9h10.2l1.2-6.5h-10.2l0.7-4h12.9l1.2-6.6h-21.4L206,49.3z
			 M141.8,29.6c0-5.2-4-8-8.9-8h-13.2l-4.9,27.7h8.5l1.6-9.2h2.3l3.2,9.2h8.7l-3.7-10.1C139.6,38.1,141.8,33.9,141.8,29.6
			 M129.8,34.2h-3.8l1.1-6.2h3.5c1.6,0,3,0.9,3,2.5C133.6,32.6,131.9,34.2,129.8,34.2 M236.5,21.7c-1.6,0-2.6,1.2-2.6,2.5
			c0,1.3,1,2.5,2.6,2.5c1.6,0,2.6-1.2,2.6-2.5C239.1,22.9,238.2,21.7,236.5,21.7 M236.5,26.5c-1.4,0-2.3-1-2.3-2.3
			c0-1.3,0.9-2.3,2.3-2.3c1.4,0,2.3,1,2.3,2.3C238.9,25.5,238,26.5,236.5,26.5 M145.9,21.6L141,49.3h8.5l4.9-27.7H145.9z
			 M169.7,21.6h-12.2l-4.9,27.7h12.3c6.6,0,11.9-2.3,13.2-9.2c0.5-2.8,1.1-5.8,1.6-8.5c0.1-0.6,0.2-1.3,0.2-2
			C179.8,23.8,174.6,21.6,169.7,21.6 M170.9,31.8l-1.3,7.3c-0.3,2.1-2.1,3.6-4.2,3.6h-3.1l2.5-14.4h2.9c1.8,0,3.2,0.9,3.2,2.8
			C171,31.3,170.9,31.6,170.9,31.8">
   </path>
  </g>
  <g>
   <path class="st0" d="M142.5,61.8c0-0.3-0.2-0.6-0.6-0.6h-0.8V63h0.3v-0.6h0.5l0.3,0.6h0.3l-0.4-0.6
			C142.4,62.2,142.5,62,142.5,61.8 M141.8,62.1h-0.4v-0.7h0.4c0.3,0,0.4,0.1,0.4,0.3C142.2,62,142.1,62.1,141.8,62.1">
   </path>
   <path class="st0" d="M141.7,60.2c-1.2,0-2,0.9-2,1.9c0,1,0.7,1.9,2,1.9s2-0.9,2-1.9C143.7,61.1,143,60.2,141.7,60.2 M141.7,63.9
			c-1.1,0-1.8-0.8-1.8-1.7s0.7-1.7,1.8-1.7c1.1,0,1.8,0.8,1.8,1.7S142.8,63.9,141.7,63.9">
   </path>
  </g>
 </g>
</svg>